<svg width="33" height="39" xmlns="http://www.w3.org/2000/svg">

 <g>
  <title>background</title>
  <rect fill="none" id="canvas_background" height="41" width="35" y="-1" x="-1"/>
 </g>
 <g>
  <title>Layer 1</title>
  <g stroke="null" transform="rotate(8.598074913024902 15.855613708496138,18.807775497436513) " id="svg_1">
   <path stroke="null" id="svg_2" fill="#9b225f" d="m29.792634,27.825172c-0.088739,-0.670725 -0.475946,-1.249034 -1.062213,-1.586567l-6.886055,-3.964729c-0.84338,-0.485591 -1.913309,-0.344224 -2.601697,0.344104l-1.356341,1.356341c-0.360923,0.360983 -0.931938,0.392934 -1.327947,0.07421c-1.069266,-0.86038 -2.122074,-1.807268 -3.129126,-2.814381c-1.007052,-1.007052 -1.953941,-2.0598 -2.814381,-3.129126c-0.318724,-0.396069 -0.286834,-0.967023 0.07421,-1.328007l1.35628,-1.356341c0.688328,-0.688268 0.829876,-1.758076 0.344164,-2.601637l-3.964729,-6.886055c-0.337593,-0.586327 -0.915842,-0.973474 -1.586567,-1.062213c-0.670785,-0.08892 -1.329876,0.134796 -1.808293,0.613214l-2.043704,2.043764c-1.426391,1.426451 -1.449299,4.035684 -0.064504,7.347171c1.331564,3.184106 3.81649,6.689287 6.996918,9.869835c3.180549,3.180489 6.68573,5.665415 9.869896,6.996979c1.630032,0.681637 3.08976,1.022244 4.322216,1.022184c1.271279,0 2.300637,-0.362491 3.024955,-1.086748l2.043704,-2.043764c0.478357,-0.478418 0.701892,-1.137508 0.613214,-1.808233m-8.399437,-4.767658l6.886055,3.964729c0.340547,0.196045 0.565408,0.53195 0.616891,0.921509c0.043284,0.326923 -0.041657,0.648842 -0.234205,0.908246l-9.151486,-5.222927l0.371654,-0.371654c0.399746,-0.399746 1.021279,-0.481914 1.511091,-0.199903m-14.673604,-17.290252c0.389619,0.051543 0.725463,0.276404 0.921509,0.616951l3.964729,6.886055c0.282131,0.489932 0.199903,1.111344 -0.199843,1.511031l-0.341391,0.341391l-5.251622,-9.121223c0.214673,-0.15897 0.471425,-0.245298 0.739088,-0.245298c0.055522,0 0.111526,0.003677 0.167531,0.011092m19.776625,25.270471c-1.133228,1.133228 -3.450925,1.085723 -6.358807,-0.130335c-3.078126,-1.287194 -6.480039,-3.702914 -9.579264,-6.802079c-3.099225,-3.099225 -5.514945,-6.501199 -6.802139,-9.579264c-1.216119,-2.907942 -1.263563,-5.22564 -0.130335,-6.358928l1.51718,-1.51724l5.259519,9.135028l-0.352724,0.352724c-0.688147,0.688208 -0.74807,1.777669 -0.139317,2.53436c0.880696,1.094525 1.849528,2.171688 2.879428,3.201588c1.030021,1.02996 2.107184,1.998792 3.201648,2.879488c0.75657,0.608753 1.846031,0.54889 2.53436,-0.139378l0.321799,-0.321799l9.164206,5.230221l-1.515552,1.515612z"/>
  </g>
 </g>
</svg>