<?xml version="1.0" encoding="utf-8"?>
<!-- Generator: Adobe Illustrator 16.0.3, SVG Export Plug-In . SVG Version: 6.00 Build 0)  -->
<!DOCTYPE svg PUBLIC "-//W3C//DTD SVG 1.1//EN" "http://www.w3.org/Graphics/SVG/1.1/DTD/svg11.dtd">
<svg version="1.1" id="Ebene_1" xmlns="http://www.w3.org/2000/svg" xmlns:xlink="http://www.w3.org/1999/xlink" x="0px" y="0px"
	 width="175.6577148px" height="89.2265625px" viewBox="0 0 175.6577148 89.2265625"
	 enable-background="new 0 0 175.6577148 89.2265625" xml:space="preserve">
<polygon fill-rule="evenodd" clip-rule="evenodd" fill="#9DBBE1" points="175.6577148,0.0014648 101.4858398,0.0014648 
	93.7514648,73.5908203 168.7514648,65.7080078 "/>
<path fill-rule="evenodd" clip-rule="evenodd" fill="#FFFFFF" d="M121.3735352,16.7719727h5.2148438l-10.8408203,24.3637695
	h-5.6357422l-5.703125-24.3637695h5.2158203l3.0595703,14.496582c0.1660156,0.8588867,0.3232422,1.8540039,0.4765625,2.9916992
	c0.1523438,1.1430664,0.2402344,1.9335938,0.2617188,2.3769531c0.2265625-1.0234375,0.8291016-2.809082,1.8095703-5.3686523
	L121.3735352,16.7719727z M145.0668945,41.1357422h-5.8632813l-5.3027344-10.2651367l-2.3476563,1.5639648l-0.9150391,8.7011719
	h-5.1640625l2.5615234-24.3637695h5.1630859l-1.171875,11.1469727l2.3378906-2.8666992l7.4619141-8.2802734h5.7324219
	l-9.6240234,10.7827148L145.0668945,41.1357422z M167.7416992,28.7207031
	c-0.421875,4.0097656-1.8818359,7.0805664-4.3867188,9.2133789c-2.5107422,2.1323242-5.9160156,3.2016602-10.2265625,3.2016602
	h-6.6845703l4.4013672-4.2651367h3.2207031c4.9707031,0,7.7373047-2.6733398,8.2988281-8.019043
	c0.5498047-5.2319336-1.484375-7.8486328-6.1015625-7.8486328h-3.6826172l-3.5478516-4.230957h7.4072266
	c3.9755859,0,6.953125,1.0522461,8.9335938,3.1503906C167.3481445,22.0214844,168.137207,24.9560547,167.7416992,28.7207031z
	 M148.5874023,21.4038086l6.0380859,7.203125l-7.4951172,7.2504883l-0.0683594,0.0668945L148.5874023,21.4038086z"/>
<polygon fill-rule="evenodd" clip-rule="evenodd" fill="#005EB8" points="84.3759766,74.5761719 92.2143555,0 8.7700195,0 
	0,83.4433594 55.0209961,89.2265625 56.2504883,77.5322266 "/>
<path fill="#FFFFFF" d="M71.6245117,24.8393555c0.081543-0.7744141,0.3632813-1.3442383,0.8515625-1.7084961
	c0.487793-0.3583984,1.0649414-0.5410156,1.7373047-0.5410156c0.7231445,0,1.2773438,0.1992188,1.6625977,0.5981445
	c0.3852539,0.4042969,0.5439453,0.9511719,0.4702148,1.6513672c-0.0712891,0.6777344-0.3500977,1.2192383-0.8256836,1.6235352
	c-0.4746094,0.3989258-1.0649414,0.5981445-1.7768555,0.5981445c-0.6723633,0-1.2114258-0.1821289-1.6235352-0.5410156
	C71.7084961,26.1552734,71.5449219,25.597168,71.6245117,24.8393555"/>
<path fill="#FFFFFF" d="M64.324707,24.8393555c0.0766602-0.7231445,0.3393555-1.2758789,0.7963867-1.668457
	c0.4624023-0.387207,1.046875-0.5810547,1.7587891-0.5810547c0.7348633,0,1.2885742,0.2050781,1.6611328,0.6147461
	c0.3725586,0.4101563,0.5258789,0.9570313,0.4545898,1.6347656c-0.0708008,0.6723633-0.3374023,1.2075195-0.8071289,1.6118164
	c-0.4643555,0.4047852-1.0551758,0.6098633-1.7788086,0.6098633c-0.7119141,0-1.2553711-0.1933594-1.6352539-0.5869141
	C64.3989258,26.0869141,64.2514648,25.5400391,64.324707,24.8393555"/>
<path fill="#FFFFFF" d="M79.8256836,29.5214844l-1.6601563,15.7949219
	c-0.1894531,1.7998047-0.7597656,3.3828125-1.7055664,4.7382813c-0.9516602,1.3623047-2.2226563,2.3984375-3.8256836,3.1220703
	c-1.6020508,0.7236328-3.4404297,1.0878906-5.5253906,1.0878906c-3.1328125,0-5.4858398-0.8027344-7.0537109-2.4150391
	c-1.5683594-1.6064453-2.203125-3.8046875-1.909668-6.6015625l1.6533203-15.7265625h5.1547852l-1.5703125,14.9404297
	c-0.1982422,1.8852539,0.0390625,3.2636719,0.6982422,4.140625c0.6645508,0.8828125,1.871582,1.3222656,3.6206055,1.3222656
	c1.6914063,0,2.9628906-0.4453125,3.8183594-1.328125c0.8564453-0.8828125,1.3842773-2.2724609,1.5830078-4.1630859
	l1.5673828-14.9121094H79.8256836z"/>
<path fill="#FFFFFF" d="M55.2578125,41.4887695c-0.421875,4.015625-1.8837891,7.0913086-4.3930664,9.2270508
	c-2.5136719,2.1357422-5.9243164,3.2070313-10.2416992,3.2070313h-6.9033203l2.5644531-24.4013672h7.6552734
	c3.9814453,0,6.9633789,1.0541992,8.9467773,3.1557617C54.8637695,34.7788086,55.6542969,37.7177734,55.2578125,41.4887695
	 M49.8735352,41.6196289c0.5507813-5.2402344-1.4868164-7.8603516-6.1118164-7.8603516h-2.7509766L39.340332,49.6513672h2.2211914
	C46.5400391,49.6513672,49.3105469,46.9736328,49.8735352,41.6196289z"/>
<path fill="#FFFFFF" d="M14.9399414,29.5214844h7.5922852c3.4633789,0,5.9238281,0.4897461,7.3803711,1.4755859
	c1.4628906,0.9853516,2.0791016,2.5517578,1.8525391,4.7045898c-0.1533203,1.4580078-0.6206055,2.6538086-1.402832,3.5883789
	c-0.78125,0.934082-1.7519531,1.4980469-2.9052734,1.6855469l-0.0170898,0.1655273
	c1.5068359,0.3476563,2.5556641,0.9912109,3.1396484,1.9370117c0.5898438,0.9453125,0.7993164,2.2041016,0.6347656,3.7705078
	c-0.234375,2.2265625-1.2246094,3.9580078-2.9624023,5.2060547c-1.7373047,1.2470703-3.9838867,1.8681641-6.746582,1.8681641H12.375
	L14.9399414,29.5214844z M19.0947266,39.1933594h3.0078125c1.4008789,0,2.4375-0.2167969,3.1152344-0.6499023
	c0.6728516-0.4379883,1.0615234-1.1557617,1.1669922-2.1582031c0.0986328-0.9399414-0.1733398-1.6064453-0.8134766-2.0166016
	c-0.640625-0.4042969-1.7016602-0.609375-3.1821289-0.609375h-2.7231445L19.0947266,39.1933594z M18.6640625,43.2944336
	l-0.668457,6.3569336h3.3720703c1.4296875,0,2.5068359-0.2734375,3.2421875-0.8203125
	c0.7397461-0.5410156,1.1640625-1.3789063,1.2822266-2.5009766c0.2124023-2.0224609-1.1279297-3.0356445-4.0214844-3.0356445
	H18.6640625z"/>
<path fill="#FFFFFF" d="M109.3813477,55.6972656l-1.7822266-7.4238281h-0.0498047
	c-0.0478516,1.1035156-0.125,2.1367188-0.2285156,3.1015625l-0.4628906,4.3222656h-1.3173828l0.9511719-8.8896484h2.0478516
	l1.7128906,7.0722656h0.0351563l3.2988281-7.0722656h2.0546875l-0.9511719,8.8896484h-1.3974609l0.4707031-4.3964844
	c0.0478516-0.4423828,0.1191406-1.0175781,0.2177734-1.7265625c0.0966797-0.7099609,0.1640625-1.1396484,0.1962891-1.2890625
	h-0.0498047l-3.4619141,7.4121094H109.3813477z"/>
<path fill="#FFFFFF" d="M117.7036133,47.1933594c0.0273438-0.2548828,0.1171875-0.4521484,0.2734375-0.5888672
	c0.1533203-0.1386719,0.3603516-0.2070313,0.6191406-0.2070313c0.2509766,0,0.4414063,0.0683594,0.5654297,0.2070313
	c0.1240234,0.1367188,0.1728516,0.3339844,0.1464844,0.5888672c-0.0263672,0.2431641-0.1171875,0.4345703-0.2714844,0.5751953
	c-0.1533203,0.1386719-0.3583984,0.2099609-0.609375,0.2099609c-0.2597656,0-0.4511719-0.0712891-0.5751953-0.2099609
	C117.7260742,47.6279297,117.6782227,47.4365234,117.7036133,47.1933594 M118.3061523,55.6972656h-1.4277344l0.7197266-6.7226563
	h1.4277344L118.3061523,55.6972656z"/>
<path fill="#FFFFFF" d="M122.9633789,54.6640625c0.3486328,0,0.703125-0.0537109,1.0634766-0.1640625l-0.1152344,1.0791016
	c-0.1650391,0.0683594-0.3769531,0.1269531-0.6308594,0.171875c-0.2539063,0.0478516-0.5136719,0.0712891-0.78125,0.0712891
	c-1.3535156,0-1.953125-0.7138672-1.8007813-2.1416016l0.3876953-3.6230469h-0.9189453l0.0683594-0.6328125l1.0410156-0.5234375
	l0.6376953-1.4208984h0.8818359l-0.1601563,1.4941406h1.9160156l-0.1162109,1.0830078h-1.9150391l-0.3857422,3.5976563
	c-0.0361328,0.3447266,0.0214844,0.5976563,0.1757813,0.7617188
	C122.4663086,54.5810547,122.6831055,54.6640625,122.9633789,54.6640625"/>
<path fill="#FFFFFF" d="M126.7368164,51.1494141c-0.0458984,0.4208984,0.0292969,0.7441406,0.2216797,0.9707031
	c0.1933594,0.2265625,0.4902344,0.3398438,0.8974609,0.3398438c0.8251953,0,1.2861328-0.4414063,1.3798828-1.3232422
	c0.046875-0.4355469-0.0185547-0.7744141-0.1982422-1.0107422c-0.1806641-0.2363281-0.4765625-0.3544922-0.8935547-0.3544922
	c-0.4150391,0-0.7392578,0.1181641-0.9785156,0.3525391C126.9291992,50.3583984,126.784668,50.7011719,126.7368164,51.1494141
	 M125.5258789,56.7412109c-0.0332031,0.3095703,0.078125,0.5458984,0.3388672,0.7119141
	c0.2597656,0.1660156,0.6416016,0.2490234,1.1435547,0.2490234c0.7783203,0,1.3691406-0.1123047,1.7724609-0.3339844
	c0.40625-0.2226563,0.6279297-0.5185547,0.6679688-0.8886719c0.03125-0.2900391-0.0527344-0.4980469-0.2470703-0.6220703
	c-0.1962891-0.1220703-0.578125-0.1845703-1.1445313-0.1845703h-1.0810547c-0.4082031,0-0.7441406,0.0947266-1.0058594,0.2880859
	S125.5610352,56.4130859,125.5258789,56.7412109z M131.6381836,48.9746094l-0.0839844,0.7841797l-1.171875,0.2119141
	c0.0898438,0.140625,0.1591797,0.3154297,0.2050781,0.5224609c0.046875,0.2080078,0.0585938,0.4257813,0.0341797,0.65625
	c-0.0751953,0.6943359-0.3720703,1.2382813-0.8935547,1.6367188c-0.5195313,0.3964844-1.1992188,0.5957031-2.0380859,0.5957031
	c-0.2158203,0-0.4082031-0.0166016-0.5791016-0.0478516c-0.328125,0.1884766-0.5048828,0.4130859-0.5322266,0.6679688
	c-0.0166016,0.1533203,0.0410156,0.2695313,0.1787109,0.3466797c0.1347656,0.0771484,0.3935547,0.1162109,0.7802734,0.1162109
	h1.171875c0.7412109,0,1.2880859,0.1582031,1.6386719,0.4736328c0.3525391,0.3144531,0.4941406,0.7714844,0.4306641,1.3671875
	c-0.0810547,0.7617188-0.4580078,1.3466797-1.1308594,1.7597656c-0.6708984,0.4121094-1.6015625,0.6201172-2.7880859,0.6201172
	c-0.9150391,0-1.5976563-0.1621094-2.0439453-0.4853516c-0.4472656-0.3242188-0.640625-0.7871094-0.5761719-1.3837891
	c0.0439453-0.4150391,0.2119141-0.7617188,0.5039063-1.0439453c0.2910156-0.2802734,0.6796875-0.4755859,1.1601563-0.5859375
	c-0.1826172-0.0800781-0.3242188-0.2109375-0.4287109-0.3916016c-0.1054688-0.1806641-0.1455078-0.3691406-0.1240234-0.5683594
	c0.0263672-0.2509766,0.1201172-0.4628906,0.2792969-0.6367188c0.1621094-0.1748047,0.3896484-0.3476563,0.6884766-0.5175781
	c-0.3320313-0.1513672-0.5878906-0.3955078-0.7695313-0.734375c-0.1806641-0.3378906-0.2451172-0.734375-0.1962891-1.1884766
	c0.0771484-0.7304688,0.3662109-1.2949219,0.8701172-1.6982422c0.5039063-0.4003906,1.1787109-0.6015625,2.0292969-0.6015625
	c0.1914063,0,0.3886719,0.0126953,0.5957031,0.0400391c0.2060547,0.0263672,0.359375,0.0556641,0.4619141,0.0849609H131.6381836z"/>
<polygon fill="#FFFFFF" points="133.5952148,55.6972656 132.1674805,55.6972656 133.1801758,46.2353516 134.6079102,46.2353516 "/>
<path fill="#FFFFFF" d="M136.4643555,47.1933594c0.0273438-0.2548828,0.1171875-0.4521484,0.2724609-0.5888672
	c0.1542969-0.1386719,0.3603516-0.2070313,0.6201172-0.2070313c0.2509766,0,0.4404297,0.0683594,0.5654297,0.2070313
	c0.1240234,0.1367188,0.1728516,0.3339844,0.1455078,0.5888672c-0.0253906,0.2431641-0.1162109,0.4345703-0.2705078,0.5751953
	c-0.1533203,0.1386719-0.3583984,0.2099609-0.609375,0.2099609c-0.2597656,0-0.4511719-0.0712891-0.5751953-0.2099609
	C136.4858398,47.6279297,136.4379883,47.4365234,136.4643555,47.1933594 M137.0668945,55.6972656h-1.4277344l0.7197266-6.7226563
	h1.4277344L137.0668945,55.6972656z"/>
<path fill="#FFFFFF" d="M142.4008789,49.9326172c-0.4550781,0-0.8330078,0.1435547-1.1376953,0.4316406
	c-0.3046875,0.2890625-0.5117188,0.7099609-0.625,1.2617188h3.0498047c0.0517578-0.5556641-0.0361328-0.9765625-0.2646484-1.2636719
	C143.1948242,50.0761719,142.8530273,49.9326172,142.4008789,49.9326172 M142.0317383,55.8222656
	c-1.0458984,0-1.8310547-0.3056641-2.3554688-0.9150391c-0.5234375-0.6103516-0.7275391-1.453125-0.6132813-2.5234375
	c0.1171875-1.0976563,0.484375-1.9628906,1.0966797-2.5917969c0.6152344-0.6289063,1.4003906-0.9423828,2.3574219-0.9423828
	c0.8857422,0,1.5585938,0.2705078,2.0146484,0.8095703c0.4570313,0.5390625,0.6347656,1.2822266,0.5332031,2.2285156
	l-0.0820313,0.7714844h-4.4785156c-0.0507813,0.6523438,0.0712891,1.1542969,0.3662109,1.5048828
	c0.296875,0.3505859,0.7451172,0.5244141,1.3486328,0.5244141c0.3964844,0,0.7695313-0.0371094,1.1201172-0.1113281
	c0.3505859-0.0751953,0.7333984-0.1992188,1.1435547-0.3740234l-0.1240234,1.1621094
	c-0.3662109,0.1660156-0.7314453,0.2841797-1.0957031,0.3525391
	C142.9008789,55.7871094,142.487793,55.8222656,142.0317383,55.8222656z"/>
<path fill="#FFFFFF" d="M149.0424805,54.6640625c0.5898438,0,1.0351563-0.1660156,1.3359375-0.4960938
	c0.3027344-0.3300781,0.4990234-0.8652344,0.5869141-1.6074219l0.0214844-0.1992188
	c0.0908203-0.8476563,0.015625-1.4492188-0.2216797-1.8056641c-0.2363281-0.3574219-0.6484375-0.5351563-1.2353516-0.5351563
	c-0.5048828,0-0.9121094,0.203125-1.2275391,0.609375c-0.3154297,0.4091797-0.5126953,0.9882813-0.59375,1.7431641
	c-0.0800781,0.7451172-0.0097656,1.3134766,0.2119141,1.7041016
	C148.1420898,54.46875,148.5151367,54.6640625,149.0424805,54.6640625 M148.5366211,55.8222656
	c-0.8378906,0-1.4609375-0.3056641-1.8652344-0.9130859c-0.40625-0.6083984-0.5488281-1.4609375-0.4306641-2.5605469
	c0.1171875-1.1044922,0.4482422-1.9628906,0.9892578-2.5771484s1.2333984-0.921875,2.0761719-0.921875
	c0.8837891,0,1.5214844,0.3261719,1.9140625,0.9794922h0.0722656c-0.0166016-0.4814453-0.0107422-0.8632813,0.0185547-1.1435547
	l0.2626953-2.4501953h1.4355469l-1.0126953,9.4619141h-1.1181641l-0.1552734-0.8798828h-0.0683594
	C150.1264648,55.4882813,149.4204102,55.8222656,148.5366211,55.8222656z"/>
</svg>
